<mxfile host="app.diagrams.net" modified="2021-05-20T15:40:55.689Z" agent="5.0 (Windows NT 10.0; Win64; x64) AppleWebKit/537.36 (KHTML, like Gecko) Chrome/90.0.4430.212 Safari/537.36" etag="5RPYZumAWfq5yvAW5E1E" version="14.6.13" type="github">
  <diagram id="C5RBs43oDa-KdzZeNtuy" name="Page-1">
    <mxGraphModel dx="1502" dy="612" grid="1" gridSize="10" guides="1" tooltips="1" connect="1" arrows="1" fold="1" page="1" pageScale="1" pageWidth="827" pageHeight="1169" math="0" shadow="0">
      <root>
        <mxCell id="WIyWlLk6GJQsqaUBKTNV-0" />
        <mxCell id="WIyWlLk6GJQsqaUBKTNV-1" parent="WIyWlLk6GJQsqaUBKTNV-0" />
        <mxCell id="ulpoTx0rsO7-wK9FX7eA-91" value="" style="edgeStyle=orthogonalEdgeStyle;rounded=0;orthogonalLoop=1;jettySize=auto;html=1;fontFamily=宋体;fontSource=https%3A%2F%2Ffonts.googleapis.com%2Fcss%3Ffamily%3D%25E5%25AE%258B%25E4%25BD%2593;fontSize=13;" edge="1" parent="WIyWlLk6GJQsqaUBKTNV-1" source="ulpoTx0rsO7-wK9FX7eA-0" target="ulpoTx0rsO7-wK9FX7eA-90">
          <mxGeometry relative="1" as="geometry" />
        </mxCell>
        <mxCell id="ulpoTx0rsO7-wK9FX7eA-0" value="&lt;font color=&quot;#323232&quot; style=&quot;font-size: 13px&quot;&gt;&lt;span style=&quot;font-size: 13px ; background-color: rgba(255 , 255 , 255 , 0.01)&quot;&gt;压缩流场流线数，&lt;br&gt;流线不相似度矩阵&lt;br style=&quot;font-size: 13px&quot;&gt;&lt;/span&gt;&lt;/font&gt;" style="shape=parallelogram;perimeter=parallelogramPerimeter;whiteSpace=wrap;html=1;fixedSize=1;fontSize=13;fontFamily=宋体;fontSource=https%3A%2F%2Ffonts.googleapis.com%2Fcss%3Ffamily%3D%25E5%25AE%258B%25E4%25BD%2593;" vertex="1" parent="WIyWlLk6GJQsqaUBKTNV-1">
          <mxGeometry x="370" y="150" width="160" height="50" as="geometry" />
        </mxCell>
        <mxCell id="ulpoTx0rsO7-wK9FX7eA-93" value="否" style="edgeStyle=orthogonalEdgeStyle;rounded=0;orthogonalLoop=1;jettySize=auto;html=1;fontFamily=宋体;fontSource=https%3A%2F%2Ffonts.googleapis.com%2Fcss%3Ffamily%3D%25E5%25AE%258B%25E4%25BD%2593;fontSize=13;" edge="1" parent="WIyWlLk6GJQsqaUBKTNV-1" source="ulpoTx0rsO7-wK9FX7eA-90" target="ulpoTx0rsO7-wK9FX7eA-92">
          <mxGeometry relative="1" as="geometry" />
        </mxCell>
        <mxCell id="ulpoTx0rsO7-wK9FX7eA-104" value="是" style="edgeStyle=orthogonalEdgeStyle;rounded=0;orthogonalLoop=1;jettySize=auto;html=1;fontFamily=宋体;fontSource=https%3A%2F%2Ffonts.googleapis.com%2Fcss%3Ffamily%3D%25E5%25AE%258B%25E4%25BD%2593;fontSize=13;" edge="1" parent="WIyWlLk6GJQsqaUBKTNV-1" source="ulpoTx0rsO7-wK9FX7eA-90" target="ulpoTx0rsO7-wK9FX7eA-103">
          <mxGeometry relative="1" as="geometry" />
        </mxCell>
        <mxCell id="ulpoTx0rsO7-wK9FX7eA-90" value="筛选的流线数等于压缩流场流线数" style="rhombus;whiteSpace=wrap;html=1;fontFamily=宋体;fontSource=https%3A%2F%2Ffonts.googleapis.com%2Fcss%3Ffamily%3D%25E5%25AE%258B%25E4%25BD%2593;fontSize=13;" vertex="1" parent="WIyWlLk6GJQsqaUBKTNV-1">
          <mxGeometry x="320" y="260" width="260" height="65" as="geometry" />
        </mxCell>
        <mxCell id="ulpoTx0rsO7-wK9FX7eA-95" value="" style="edgeStyle=orthogonalEdgeStyle;rounded=0;orthogonalLoop=1;jettySize=auto;html=1;fontFamily=宋体;fontSource=https%3A%2F%2Ffonts.googleapis.com%2Fcss%3Ffamily%3D%25E5%25AE%258B%25E4%25BD%2593;fontSize=13;" edge="1" parent="WIyWlLk6GJQsqaUBKTNV-1" source="ulpoTx0rsO7-wK9FX7eA-92" target="ulpoTx0rsO7-wK9FX7eA-94">
          <mxGeometry relative="1" as="geometry" />
        </mxCell>
        <mxCell id="ulpoTx0rsO7-wK9FX7eA-92" value="从流线不相似度矩阵中选择与其他流线最不相似的流线" style="whiteSpace=wrap;html=1;fontFamily=宋体;fontSource=https%3A%2F%2Ffonts.googleapis.com%2Fcss%3Ffamily%3D%25E5%25AE%258B%25E4%25BD%2593;fontSize=13;" vertex="1" parent="WIyWlLk6GJQsqaUBKTNV-1">
          <mxGeometry x="365" y="390" width="170" height="42.5" as="geometry" />
        </mxCell>
        <mxCell id="ulpoTx0rsO7-wK9FX7eA-97" value="否" style="edgeStyle=orthogonalEdgeStyle;rounded=0;orthogonalLoop=1;jettySize=auto;html=1;fontFamily=宋体;fontSource=https%3A%2F%2Ffonts.googleapis.com%2Fcss%3Ffamily%3D%25E5%25AE%258B%25E4%25BD%2593;fontSize=13;" edge="1" parent="WIyWlLk6GJQsqaUBKTNV-1" source="ulpoTx0rsO7-wK9FX7eA-94" target="ulpoTx0rsO7-wK9FX7eA-96">
          <mxGeometry relative="1" as="geometry" />
        </mxCell>
        <mxCell id="ulpoTx0rsO7-wK9FX7eA-101" style="edgeStyle=orthogonalEdgeStyle;rounded=0;orthogonalLoop=1;jettySize=auto;html=1;entryX=0.5;entryY=0;entryDx=0;entryDy=0;fontFamily=宋体;fontSource=https%3A%2F%2Ffonts.googleapis.com%2Fcss%3Ffamily%3D%25E5%25AE%258B%25E4%25BD%2593;fontSize=13;" edge="1" parent="WIyWlLk6GJQsqaUBKTNV-1" source="ulpoTx0rsO7-wK9FX7eA-94" target="ulpoTx0rsO7-wK9FX7eA-92">
          <mxGeometry relative="1" as="geometry">
            <Array as="points">
              <mxPoint x="650" y="508" />
              <mxPoint x="650" y="370" />
              <mxPoint x="450" y="370" />
            </Array>
          </mxGeometry>
        </mxCell>
        <mxCell id="ulpoTx0rsO7-wK9FX7eA-102" value="是" style="edgeLabel;html=1;align=center;verticalAlign=middle;resizable=0;points=[];fontSize=13;fontFamily=宋体;" vertex="1" connectable="0" parent="ulpoTx0rsO7-wK9FX7eA-101">
          <mxGeometry x="-0.73" y="2" relative="1" as="geometry">
            <mxPoint as="offset" />
          </mxGeometry>
        </mxCell>
        <mxCell id="ulpoTx0rsO7-wK9FX7eA-94" value="流线存在于压缩流场的流线索引" style="rhombus;whiteSpace=wrap;html=1;fontFamily=宋体;fontSource=https%3A%2F%2Ffonts.googleapis.com%2Fcss%3Ffamily%3D%25E5%25AE%258B%25E4%25BD%2593;fontSize=13;" vertex="1" parent="WIyWlLk6GJQsqaUBKTNV-1">
          <mxGeometry x="325" y="480" width="250" height="56.25" as="geometry" />
        </mxCell>
        <mxCell id="ulpoTx0rsO7-wK9FX7eA-98" style="edgeStyle=orthogonalEdgeStyle;rounded=0;orthogonalLoop=1;jettySize=auto;html=1;exitX=0;exitY=0.5;exitDx=0;exitDy=0;entryX=0.5;entryY=0;entryDx=0;entryDy=0;fontFamily=宋体;fontSource=https%3A%2F%2Ffonts.googleapis.com%2Fcss%3Ffamily%3D%25E5%25AE%258B%25E4%25BD%2593;fontSize=13;" edge="1" parent="WIyWlLk6GJQsqaUBKTNV-1" source="ulpoTx0rsO7-wK9FX7eA-96" target="ulpoTx0rsO7-wK9FX7eA-90">
          <mxGeometry relative="1" as="geometry">
            <Array as="points">
              <mxPoint x="270" y="602" />
              <mxPoint x="270" y="240" />
              <mxPoint x="450" y="240" />
            </Array>
          </mxGeometry>
        </mxCell>
        <mxCell id="ulpoTx0rsO7-wK9FX7eA-96" value="筛选的流线数加一" style="whiteSpace=wrap;html=1;fontFamily=宋体;fontSource=https%3A%2F%2Ffonts.googleapis.com%2Fcss%3Ffamily%3D%25E5%25AE%258B%25E4%25BD%2593;fontSize=13;" vertex="1" parent="WIyWlLk6GJQsqaUBKTNV-1">
          <mxGeometry x="390" y="584.5" width="120" height="35.63" as="geometry" />
        </mxCell>
        <mxCell id="ulpoTx0rsO7-wK9FX7eA-103" value="得到压缩流场的流线索引" style="whiteSpace=wrap;html=1;fontFamily=宋体;fontSource=https%3A%2F%2Ffonts.googleapis.com%2Fcss%3Ffamily%3D%25E5%25AE%258B%25E4%25BD%2593;fontSize=13;" vertex="1" parent="WIyWlLk6GJQsqaUBKTNV-1">
          <mxGeometry x="667" y="273.75" width="160" height="37.5" as="geometry" />
        </mxCell>
      </root>
    </mxGraphModel>
  </diagram>
</mxfile>
